<?xml version="1.0" encoding="UTF-8" standalone="no"?>
<!DOCTYPE svg PUBLIC "-//W3C//DTD SVG 1.1//EN" "http://www.w3.org/Graphics/SVG/1.1/DTD/svg11.dtd">
<svg version="1.1" xmlns:dc="http://purl.org/dc/elements/1.1/" xmlns="http://www.w3.org/2000/svg" xmlns:xl="http://www.w3.org/1999/xlink" viewBox="219 239 379 126" width="379" height="126">
  <defs/>
  <g id="Canvas_1" stroke-opacity="1" stroke="none" stroke-dasharray="none" fill="none" fill-opacity="1">
    <title>Canvas 1</title>
    <rect fill="white" x="219" y="239" width="379" height="126"/>
    <g id="Canvas_1_Layer_1">
      <title>Layer 1</title>
      <g id="Graphic_5">
        <rect x="219.5" y="243.224" width="98" height="40" fill="white"/>
        <rect x="219.5" y="243.224" width="98" height="40" stroke="black" stroke-linecap="round" stroke-linejoin="round" stroke-width="1"/>
        <text transform="translate(224.5 254)" fill="black">
          <tspan font-family="Helvetica Neue" font-size="16" fill="black" x="34.08" y="15">Till</tspan>
        </text>
      </g>
      <g id="Graphic_7">
        <path d="M 372.02626 264.91695 C 356.1875 262.5 362.5036 242.15325 387.76996 245.625 C 390.1141 238.85745 419.4955 239.9559 419.3034 245.625 C 437.72644 238.37415 461.26996 252.8322 445.47824 260.08305 C 464.4275 263.59845 445.2391 282.53895 429.6875 279.375 C 428.4429 284.64855 400.6413 286.494 398.2011 279.375 C 382.45836 286.97775 349.6323 275.2881 372.02626 264.91695 Z" fill="white"/>
        <path d="M 372.02626 264.91695 C 356.1875 262.5 362.5036 242.15325 387.76996 245.625 C 390.1141 238.85745 419.4955 239.9559 419.3034 245.625 C 437.72644 238.37415 461.26996 252.8322 445.47824 260.08305 C 464.4275 263.59845 445.2391 282.53895 429.6875 279.375 C 428.4429 284.64855 400.6413 286.494 398.2011 279.375 C 382.45836 286.97775 349.6323 275.2881 372.02626 264.91695 Z" stroke="black" stroke-linecap="round" stroke-linejoin="round" stroke-width="1"/>
        <text transform="translate(378.95 253.276)" fill="black">
          <tspan font-family="Helvetica Neue" font-size="16" fill="black" x="8.995999" y="15">Order</tspan>
        </text>
      </g>
      <g id="Graphic_12">
        <rect x="499" y="243" width="98" height="40" fill="white"/>
        <rect x="499" y="243" width="98" height="40" stroke="black" stroke-linecap="round" stroke-linejoin="round" stroke-width="1"/>
        <text transform="translate(504 253.776)" fill="black">
          <tspan font-family="Helvetica Neue" font-size="16" fill="black" x="13.48" y="15">Preparer</tspan>
        </text>
      </g>
      <g id="Graphic_22">
        <path d="M 452.76614 264.4162 L 452.8705 259.58895 L 483.91977 260.26018 L 484.0297 255.17555 L 498.8379 262.99743 L 483.7055 270.17205 L 483.8154 265.08742 Z" fill="black" fill-opacity=".1"/>
        <path d="M 452.76614 264.4162 L 452.8705 259.58895 L 483.91977 260.26018 L 484.0297 255.17555 L 498.8379 262.99743 L 483.7055 270.17205 L 483.8154 265.08742 Z" stroke="black" stroke-opacity=".75" stroke-linecap="round" stroke-linejoin="round" stroke-width="1"/>
      </g>
      <g id="Graphic_51">
        <path d="M 317.60992 265.1402 L 317.71428 260.31295 L 348.76355 260.98417 L 348.87347 255.89955 L 363.6817 263.72143 L 348.54928 270.89605 L 348.6592 265.81142 Z" fill="black" fill-opacity=".1"/>
        <path d="M 317.60992 265.1402 L 317.71428 260.31295 L 348.76355 260.98417 L 348.87347 255.89955 L 363.6817 263.72143 L 348.54928 270.89605 L 348.6592 265.81142 Z" stroke="black" stroke-opacity=".75" stroke-linecap="round" stroke-linejoin="round" stroke-width="1"/>
      </g>
      <g id="Graphic_52">
        <path d="M 511.77626 344.41695 C 495.9375 342 502.2536 321.65325 527.51996 325.125 C 529.8641 318.35745 559.2455 319.4559 559.0534 325.125 C 577.47644 317.87415 601.01996 332.3322 585.22824 339.58305 C 604.1775 343.09845 584.9891 362.03895 569.4375 358.875 C 568.1929 364.14855 540.3913 365.994 537.9511 358.875 C 522.20836 366.47775 489.3823 354.7881 511.77626 344.41695 Z" fill="white"/>
        <path d="M 511.77626 344.41695 C 495.9375 342 502.2536 321.65325 527.51996 325.125 C 529.8641 318.35745 559.2455 319.4559 559.0534 325.125 C 577.47644 317.87415 601.01996 332.3322 585.22824 339.58305 C 604.1775 343.09845 584.9891 362.03895 569.4375 358.875 C 568.1929 364.14855 540.3913 365.994 537.9511 358.875 C 522.20836 366.47775 489.3823 354.7881 511.77626 344.41695 Z" stroke="black" stroke-linecap="round" stroke-linejoin="round" stroke-width="1"/>
        <text transform="translate(518.7 332.776)" fill="black">
          <tspan font-family="Helvetica Neue" font-size="16" fill="black" x="10.187999" y="15">Cook</tspan>
        </text>
      </g>
      <g id="Graphic_53">
        <path d="M 545.5858 283.5 L 550.4142 283.5 L 550.4142 305.185 L 555.5 305.185 L 548 320.1588 L 540.5 305.185 L 545.5858 305.185 Z" fill="black" fill-opacity=".1"/>
        <path d="M 545.5858 283.5 L 550.4142 283.5 L 550.4142 305.185 L 555.5 305.185 L 548 320.1588 L 540.5 305.185 L 545.5858 305.185 Z" stroke="black" stroke-opacity=".75" stroke-linecap="round" stroke-linejoin="round" stroke-width="1"/>
      </g>
      <g id="Graphic_54">
        <rect x="368.5" y="324.5" width="98" height="40" fill="white"/>
        <rect x="368.5" y="324.5" width="98" height="40" stroke="black" stroke-linecap="round" stroke-linejoin="round" stroke-width="1"/>
        <text transform="translate(373.5 335.276)" fill="black">
          <tspan font-family="Helvetica Neue" font-size="16" fill="black" x="24.888" y="15">Cook</tspan>
        </text>
      </g>
      <g id="Graphic_55">
        <path d="M 504.01395 342.58585 L 503.98605 347.41415 L 481.9596 347.28683 L 481.9302 352.37255 L 467 344.78613 L 482.0169 337.3728 L 481.9875 342.45853 Z" fill="black" fill-opacity=".1"/>
        <path d="M 504.01395 342.58585 L 503.98605 347.41415 L 481.9596 347.28683 L 481.9302 352.37255 L 467 344.78613 L 482.0169 337.3728 L 481.9875 342.45853 Z" stroke="black" stroke-opacity=".75" stroke-linecap="round" stroke-linejoin="round" stroke-width="1"/>
      </g>
      <g id="Graphic_56">
        <path d="M 415.4142 324 L 410.5858 324 L 410.5858 299.9738 L 405.5 299.9738 L 413 285 L 420.5 299.9738 L 415.4142 299.9738 Z" fill="black" fill-opacity=".1"/>
        <path d="M 415.4142 324 L 410.5858 324 L 410.5858 299.9738 L 405.5 299.9738 L 413 285 L 420.5 299.9738 L 415.4142 299.9738 Z" stroke="black" stroke-opacity=".75" stroke-linecap="round" stroke-linejoin="round" stroke-width="1"/>
      </g>
    </g>
  </g>
</svg>
