<?xml version="1.0" encoding="UTF-8" standalone="no"?>
<!DOCTYPE svg PUBLIC "-//W3C//DTD SVG 1.1//EN" "http://www.w3.org/Graphics/SVG/1.1/DTD/svg11.dtd">
<svg xmlns:dc="http://purl.org/dc/elements/1.1/" xmlns="http://www.w3.org/2000/svg" xmlns:xl="http://www.w3.org/1999/xlink" version="1.1" viewBox="118 237 588 153" width="588" height="153">
  <defs/>
  <g id="Canvas_1" fill="none" fill-opacity="1" stroke="none" stroke-opacity="1" stroke-dasharray="none">
    <title>Canvas 1</title>
    <rect fill="white" x="118" y="237" width="588" height="153"/>
    <g id="Canvas_1_Layer_1">
      <title>Layer 1</title>
      <g id="Graphic_2">
        <text transform="translate(123.5 254.49503)" fill="black">
          <tspan font-family="Helvetica Neue" font-size="16" fill="black" x="7958079e-19" y="15">Customer</tspan>
        </text>
      </g>
      <g id="Graphic_5">
        <rect x="219.5" y="243.224" width="98" height="40" fill="white"/>
        <rect x="219.5" y="243.224" width="98" height="40" stroke="black" stroke-linecap="round" stroke-linejoin="round" stroke-width="1"/>
        <text transform="translate(224.5 254)" fill="black">
          <tspan font-family="Helvetica Neue" font-size="16" fill="black" x="34.08" y="15">Till</tspan>
        </text>
      </g>
      <g id="Graphic_7">
        <path d="M 372.02626 262.91695 C 356.1875 260.5 362.5036 240.15325 387.76996 243.625 C 390.1141 236.85745 419.4955 237.9559 419.3034 243.625 C 437.72644 236.37415 461.26996 250.8322 445.47824 258.08305 C 464.4275 261.59845 445.2391 280.53895 429.6875 277.375 C 428.4429 282.64855 400.6413 284.494 398.2011 277.375 C 382.45836 284.97775 349.6323 273.2881 372.02626 262.91695 Z" fill="white"/>
        <path d="M 372.02626 262.91695 C 356.1875 260.5 362.5036 240.15325 387.76996 243.625 C 390.1141 236.85745 419.4955 237.9559 419.3034 243.625 C 437.72644 236.37415 461.26996 250.8322 445.47824 258.08305 C 464.4275 261.59845 445.2391 280.53895 429.6875 277.375 C 428.4429 282.64855 400.6413 284.494 398.2011 277.375 C 382.45836 284.97775 349.6323 273.2881 372.02626 262.91695 Z" stroke="black" stroke-linecap="round" stroke-linejoin="round" stroke-width="1"/>
        <text transform="translate(378.95 251.276)" fill="black">
          <tspan font-family="Helvetica Neue" font-size="16" fill="black" x="8.995999" y="15">Order</tspan>
        </text>
      </g>
      <g id="Graphic_9">
        <text transform="translate(630 253.276)" fill="black">
          <tspan font-family="Helvetica Neue" font-size="16" fill="black" x="7958079e-19" y="15">Customer</tspan>
        </text>
      </g>
      <g id="Graphic_12">
        <rect x="499" y="243" width="98" height="40" fill="white"/>
        <rect x="499" y="243" width="98" height="40" stroke="black" stroke-linecap="round" stroke-linejoin="round" stroke-width="1"/>
        <text transform="translate(504 253.776)" fill="black">
          <tspan font-family="Helvetica Neue" font-size="16" fill="black" x="13.48" y="15">Preparer</tspan>
        </text>
      </g>
      <g id="Graphic_21">
        <path d="M 317.9477 266.70772 L 318.05206 261.88047 L 349.10134 262.5517 L 349.21126 257.46708 L 364.01947 265.28895 L 348.88706 272.46357 L 348.997 267.37895 Z" fill="black" fill-opacity=".1"/>
        <path d="M 317.9477 266.70772 L 318.05206 261.88047 L 349.10134 262.5517 L 349.21126 257.46708 L 364.01947 265.28895 L 348.88706 272.46357 L 348.997 267.37895 Z" stroke="black" stroke-opacity=".75" stroke-linecap="round" stroke-linejoin="round" stroke-width="1"/>
      </g>
      <g id="Graphic_22">
        <path d="M 452.76614 265.63522 L 452.8705 260.80798 L 483.91977 261.4792 L 484.0297 256.39458 L 498.8379 264.21646 L 483.7055 271.39108 L 483.8154 266.30645 Z" fill="black" fill-opacity=".1"/>
        <path d="M 452.76614 265.63522 L 452.8705 260.80798 L 483.91977 261.4792 L 484.0297 256.39458 L 498.8379 264.21646 L 483.7055 271.39108 L 483.8154 266.30645 Z" stroke="black" stroke-opacity=".75" stroke-linecap="round" stroke-linejoin="round" stroke-width="1"/>
      </g>
      <g id="Graphic_28">
        <path d="M 420.59836 282.80504 L 424.1852 280.40142 L 438.41384 301.63427 L 442.85084 298.66093 L 445.90483 316.69084 L 430.39 307.01123 L 434.827 304.0379 Z" fill="black" fill-opacity=".1"/>
        <path d="M 420.59836 282.80504 L 424.1852 280.40142 L 438.41384 301.63427 L 442.85084 298.66093 L 445.90483 316.69084 L 430.39 307.01123 L 434.827 304.0379 Z" stroke="black" stroke-opacity=".75" stroke-linecap="round" stroke-linejoin="round" stroke-width="1"/>
      </g>
      <g id="Graphic_31">
        <path d="M 545.5 368.0332 L 545.5 340.29874 C 545.5 338.38506 555.881 336.83193 568.6719 336.83193 C 581.4628 336.83193 591.8438 338.38506 591.8438 340.29874 L 591.8438 368.0332 C 591.8438 369.94687 581.4628 371.5 568.6719 371.5 C 555.881 371.5 545.5 369.94687 545.5 368.0332" fill="white"/>
        <path d="M 545.5 368.0332 L 545.5 340.29874 C 545.5 338.38506 555.881 336.83193 568.6719 336.83193 C 581.4628 336.83193 591.8438 338.38506 591.8438 340.29874 L 591.8438 368.0332 C 591.8438 369.94687 581.4628 371.5 568.6719 371.5 C 555.881 371.5 545.5 369.94687 545.5 368.0332 M 545.5 340.29874 C 545.5 342.2124 555.881 343.76555 568.6719 343.76555 C 581.4628 343.76555 591.8438 342.2124 591.8438 340.29874" stroke="black" stroke-linecap="round" stroke-linejoin="round" stroke-width="1"/>
        <text transform="translate(550.5 346.67537)" fill="black">
          <tspan font-family="Helvetica Neue" font-size="16" fill="black" x="7.05989" y="15">DB</tspan>
        </text>
      </g>
      <g id="Graphic_45">
        <path d="M 504.20977 348.32976 L 510.74616 351.5 L 504.20977 354.67024 L 509.8742 358.87333 L 502.7711 360.9375 L 507.34677 365.95146 L 499.8956 366.76232 L 503.20753 372.43917 L 495.71175 372.07073 L 497.6734 378.19076 L 490.39535 376.56826 L 490.8746 382.9095 L 484.1642 380.1077 L 483.16195 386.3742 L 477.2351 382.5403 L 474.7951 388.51236 L 469.8705 383.7204 L 466.1231 389.25 L 462.3319 383.7204 L 457.4073 388.51236 L 455.01104 382.5403 L 449.04047 386.3742 L 448.03824 380.1077 L 441.3278 382.9095 L 441.80707 376.56826 L 434.52994 378.19076 L 436.4907 372.07073 L 428.9949 372.43917 L 432.3068 366.76232 L 424.85566 365.95146 L 429.4313 360.9375 L 422.3282 358.87333 L 427.99266 354.67024 L 421.5 351.5 L 427.99266 348.32976 L 422.3282 344.12667 L 429.4313 342.0625 L 424.85566 337.04854 L 432.3068 336.23768 L 428.9949 330.56083 L 436.4907 330.92927 L 434.52994 324.80924 L 441.80707 326.43174 L 441.3278 320.0905 L 448.03824 322.8923 L 449.04047 316.6258 L 455.01104 320.4597 L 457.4073 314.48764 L 462.3319 319.2064 L 466.07935 313.75 L 469.8705 319.2064 L 474.7951 314.48764 L 477.2351 320.4597 L 483.16195 316.6258 L 484.1642 322.8923 L 490.8746 320.0905 L 490.39535 326.43174 L 497.6734 324.80924 L 495.71175 330.92927 L 503.20753 330.56083 L 499.8956 336.23768 L 507.34677 337.04854 L 502.7711 342.0625 L 509.8742 344.12667 L 504.20977 348.32976 Z" fill="white"/>
        <path d="M 504.20977 348.32976 L 510.74616 351.5 L 504.20977 354.67024 L 509.8742 358.87333 L 502.7711 360.9375 L 507.34677 365.95146 L 499.8956 366.76232 L 503.20753 372.43917 L 495.71175 372.07073 L 497.6734 378.19076 L 490.39535 376.56826 L 490.8746 382.9095 L 484.1642 380.1077 L 483.16195 386.3742 L 477.2351 382.5403 L 474.7951 388.51236 L 469.8705 383.7204 L 466.1231 389.25 L 462.3319 383.7204 L 457.4073 388.51236 L 455.01104 382.5403 L 449.04047 386.3742 L 448.03824 380.1077 L 441.3278 382.9095 L 441.80707 376.56826 L 434.52994 378.19076 L 436.4907 372.07073 L 428.9949 372.43917 L 432.3068 366.76232 L 424.85566 365.95146 L 429.4313 360.9375 L 422.3282 358.87333 L 427.99266 354.67024 L 421.5 351.5 L 427.99266 348.32976 L 422.3282 344.12667 L 429.4313 342.0625 L 424.85566 337.04854 L 432.3068 336.23768 L 428.9949 330.56083 L 436.4907 330.92927 L 434.52994 324.80924 L 441.80707 326.43174 L 441.3278 320.0905 L 448.03824 322.8923 L 449.04047 316.6258 L 455.01104 320.4597 L 457.4073 314.48764 L 462.3319 319.2064 L 466.07935 313.75 L 469.8705 319.2064 L 474.7951 314.48764 L 477.2351 320.4597 L 483.16195 316.6258 L 484.1642 322.8923 L 490.8746 320.0905 L 490.39535 326.43174 L 497.6734 324.80924 L 495.71175 330.92927 L 503.20753 330.56083 L 499.8956 336.23768 L 507.34677 337.04854 L 502.7711 342.0625 L 509.8742 344.12667 L 504.20977 348.32976 Z" stroke="black" stroke-linecap="round" stroke-linejoin="round" stroke-width="1"/>
      </g>
      <g id="Graphic_48">
        <path d="M 506.08056 356.36306 L 506.0973 351.5347 L 530.03466 351.61774 L 530.0523 346.53196 L 545 354.08386 L 530.0003 361.53187 L 530.0179 356.4461 Z" fill="black" fill-opacity=".1"/>
        <path d="M 506.08056 356.36306 L 506.0973 351.5347 L 530.03466 351.61774 L 530.0523 346.53196 L 545 354.08386 L 530.0003 361.53187 L 530.0179 356.4461 Z" stroke="black" stroke-opacity=".75" stroke-linecap="round" stroke-linejoin="round" stroke-width="1"/>
      </g>
      <g id="Graphic_49">
        <text transform="translate(630 344.94197)" fill="black">
          <tspan font-family="Helvetica Neue" font-size="16" fill="black" x="15987212e-20" y="15">Analyst</tspan>
        </text>
      </g>
    </g>
  </g>
</svg>
