<?xml version="1.0" encoding="UTF-8" standalone="no"?>
<!DOCTYPE svg PUBLIC "-//W3C//DTD SVG 1.1//EN" "http://www.w3.org/Graphics/SVG/1.1/DTD/svg11.dtd">
<svg xmlns:dc="http://purl.org/dc/elements/1.1/" xmlns="http://www.w3.org/2000/svg" xmlns:xl="http://www.w3.org/1999/xlink" version="1.1" viewBox="219 239 379 47" width="379" height="47">
  <defs/>
  <g id="Canvas_1" fill="none" fill-opacity="1" stroke="none" stroke-opacity="1" stroke-dasharray="none">
    <title>Canvas 1</title>
    <rect fill="white" x="219" y="239" width="379" height="47"/>
    <g id="Canvas_1_Layer_1">
      <title>Layer 1</title>
      <g id="Graphic_5">
        <rect x="219.5" y="243.224" width="98" height="40" fill="white"/>
        <rect x="219.5" y="243.224" width="98" height="40" stroke="black" stroke-linecap="round" stroke-linejoin="round" stroke-width="1"/>
        <text transform="translate(224.5 254)" fill="black">
          <tspan font-family="Helvetica Neue" font-size="16" fill="black" x="11.256" y="15">Producer</tspan>
        </text>
      </g>
      <g id="Graphic_7">
        <path d="M 372.02626 264.91695 C 356.1875 262.5 362.5036 242.15325 387.76996 245.625 C 390.1141 238.85745 419.4955 239.9559 419.3034 245.625 C 437.72644 238.37415 461.26996 252.8322 445.47824 260.08305 C 464.4275 263.59845 445.2391 282.53895 429.6875 279.375 C 428.4429 284.64855 400.6413 286.494 398.2011 279.375 C 382.45836 286.97775 349.6323 275.2881 372.02626 264.91695 Z" fill="white"/>
        <path d="M 372.02626 264.91695 C 356.1875 262.5 362.5036 242.15325 387.76996 245.625 C 390.1141 238.85745 419.4955 239.9559 419.3034 245.625 C 437.72644 238.37415 461.26996 252.8322 445.47824 260.08305 C 464.4275 263.59845 445.2391 282.53895 429.6875 279.375 C 428.4429 284.64855 400.6413 286.494 398.2011 279.375 C 382.45836 286.97775 349.6323 275.2881 372.02626 264.91695 Z" stroke="black" stroke-linecap="round" stroke-linejoin="round" stroke-width="1"/>
        <text transform="translate(378.95 253.276)" fill="black">
          <tspan font-family="Helvetica Neue" font-size="16" fill="black" x="10.187999" y="15">Topic</tspan>
        </text>
      </g>
      <g id="Graphic_12">
        <rect x="499" y="243" width="98" height="40" fill="white"/>
        <rect x="499" y="243" width="98" height="40" stroke="black" stroke-linecap="round" stroke-linejoin="round" stroke-width="1"/>
        <text transform="translate(504 253.776)" fill="black">
          <tspan font-family="Helvetica Neue" font-size="16" fill="black" x="6.952" y="15">Consumer</tspan>
        </text>
      </g>
      <g id="Graphic_22">
        <path d="M 454.3119 264.74743 L 454.35474 259.91924 L 483.8861 260.18114 L 483.9312 255.09553 L 498.8379 262.72802 L 483.7982 270.09494 L 483.8433 265.00932 Z" fill="black" fill-opacity=".1"/>
        <path d="M 454.3119 264.74743 L 454.35474 259.91924 L 483.8861 260.18114 L 483.9312 255.09553 L 498.8379 262.72802 L 483.7982 270.09494 L 483.8433 265.00932 Z" stroke="black" stroke-opacity=".75" stroke-linecap="round" stroke-linejoin="round" stroke-width="1"/>
      </g>
      <g id="Graphic_51">
        <path d="M 317.68367 265.14066 L 317.64053 260.31248 L 346.6719 260.05305 L 346.62644 254.96744 L 361.66667 262.33333 L 346.76048 269.96684 L 346.71503 264.88123 Z" fill="black" fill-opacity=".1"/>
        <path d="M 317.68367 265.14066 L 317.64053 260.31248 L 346.6719 260.05305 L 346.62644 254.96744 L 361.66667 262.33333 L 346.76048 269.96684 L 346.71503 264.88123 Z" stroke="black" stroke-opacity=".75" stroke-linecap="round" stroke-linejoin="round" stroke-width="1"/>
      </g>
    </g>
  </g>
</svg>
